<svg width="24" height="24" viewBox="0 0 24 24" fill="none" xmlns="http://www.w3.org/2000/svg">
<rect width="24" height="24" fill="#F2F2F2"/>
<path d="M-3247 -886C-3247 -887.104 -3246.1 -888 -3245 -888H7582C7583.1 -888 7584 -887.105 7584 -886V3068C7584 3069.1 7583.1 3070 7582 3070H-3245C-3246.1 3070 -3247 3069.1 -3247 3068V-886Z" fill="#B0B0B0"/>
<rect width="2041" height="1364" transform="translate(-467 -240)" fill="white"/>
<path d="M12 8V12L14 14M21 12C21 16.9706 16.9706 21 12 21C7.02944 21 3 16.9706 3 12C3 7.02944 7.02944 3 12 3C16.9706 3 21 7.02944 21 12Z" stroke="#495057" stroke-width="1.5" stroke-linecap="round" stroke-linejoin="round"/>
<path d="M-3245 -887H7582V-889H-3245V-887ZM7583 -886V3068H7585V-886H7583ZM7582 3069H-3245V3071H7582V3069ZM-3246 3068V-886H-3248V3068H-3246ZM-3245 3069C-3245.55 3069 -3246 3068.55 -3246 3068H-3248C-3248 3069.66 -3246.66 3071 -3245 3071V3069ZM7583 3068C7583 3068.55 7582.55 3069 7582 3069V3071C7583.66 3071 7585 3069.66 7585 3068H7583ZM7582 -887C7582.55 -887 7583 -886.552 7583 -886H7585C7585 -887.657 7583.66 -889 7582 -889V-887ZM-3245 -889C-3246.66 -889 -3248 -887.657 -3248 -886H-3246C-3246 -886.552 -3245.55 -887 -3245 -887V-889Z" fill="black"/>
</svg>
