<svg width="14" height="14" viewBox="0 0 14 14" fill="none" xmlns="http://www.w3.org/2000/svg">
<g clip-path="url(#clip0_169_486)">
<path d="M0 0H6.66019C6.66019 2.22006 6.66019 4.44013 6.66019 6.66019H0V0Z" fill="#F25022"/>
<path d="M7.33984 0H14C14 2.22006 14 4.44013 14 6.66019C11.7808 6.66019 9.56076 6.66019 7.3407 6.66019C7.3407 4.44013 7.3407 2.22006 7.3407 0H7.33984Z" fill="#80BA01"/>
<path d="M0 7.33984C2.22006 7.33984 4.44013 7.33984 6.66019 7.33984C6.66019 9.55991 6.66019 11.7791 6.66019 13.9992H0V7.33899V7.33984Z" fill="#02A4EF"/>
<path d="M7.3407 7.3407C9.55991 7.3407 11.78 7.3407 14 7.3407V14.0009H7.33984C7.33984 11.7808 7.33984 9.56076 7.33984 7.34155L7.3407 7.3407Z" fill="#FFB902"/>
</g>
<defs>
<clipPath id="clip0_169_486">
<rect width="14" height="14" fill="white"/>
</clipPath>
</defs>
</svg>
