<svg width="100" height="100" viewBox="0 0 100 100" fill="none" xmlns="http://www.w3.org/2000/svg">
<rect width="100" height="100" fill="#DEE2E6"/>
<path d="M33.026 52.0873C33.6206 52.0873 34.1027 51.6053 34.1027 51.0107C34.1027 50.4161 33.6206 49.9341 33.026 49.9341C32.4314 49.9341 31.9494 50.4161 31.9494 51.0107C31.9494 51.6053 32.4314 52.0873 33.026 52.0873Z" fill="#BFBFBF"/>
<path d="M50.949 47.4907C48.9676 47.4907 47.3615 49.0968 47.3615 51.0782C47.3615 53.0596 48.9676 54.6657 50.949 54.6657C52.9304 54.6657 54.5365 53.0596 54.5365 51.0782C54.5365 49.0968 52.9304 47.4907 50.949 47.4907ZM50.949 52.9504C49.9151 52.9504 49.0768 52.1121 49.0768 51.0782C49.0768 50.0443 49.9151 49.206 50.949 49.206C51.9829 49.206 52.8213 50.0443 52.8213 51.0782C52.8213 52.1121 51.9829 52.9504 50.949 52.9504Z" fill="#BFBFBF"/>
<path d="M67.1106 47.4907C65.1292 47.4907 63.5232 49.0968 63.5232 51.0782C63.5232 53.0596 65.1292 54.6657 67.1106 54.6657C69.0921 54.6657 70.6981 53.0596 70.6981 51.0782C70.6981 49.0968 69.0921 47.4907 67.1106 47.4907ZM67.1106 52.9504C66.0768 52.9504 65.2384 52.1121 65.2384 51.0782C65.2384 50.0443 66.0768 49.206 67.1106 49.206C68.1445 49.206 68.9829 50.0443 68.9829 51.0782C68.9829 52.1121 68.1445 52.9504 67.1106 52.9504Z" fill="#BFBFBF"/>
<path d="M27.8427 52.5445C27.5007 52.8246 27.064 52.9931 26.5875 52.9931C25.6687 52.9931 24.8959 52.368 24.6712 51.5199H28.5037C28.5037 51.5199 28.5029 51.522 28.5029 51.5233H30.1381C30.1622 51.3557 30.1754 51.1847 30.1754 51.0108C30.1754 49.0294 28.5693 47.4233 26.5879 47.4233C24.6065 47.4233 23 49.0294 23 51.0108C23 52.9922 24.606 54.5983 26.5875 54.5983C28.02 54.5983 29.2558 53.7587 29.8309 52.5449H27.8427V52.5445ZM26.5875 49.0281C27.4254 49.0281 28.1415 49.5482 28.4318 50.2833H24.7432C25.0335 49.5482 25.7495 49.0281 26.5875 49.0281Z" fill="#BFBFBF"/>
<path d="M61.3255 47.1575C61.9212 47.1575 62.4042 46.6745 62.4042 46.0787C62.4042 45.483 61.9212 45 61.3255 45C60.7297 45 60.2467 45.483 60.2467 46.0787C60.2467 46.6745 60.7297 47.1575 61.3255 47.1575Z" fill="#BFBFBF"/>
<path d="M62.1812 47.6982H60.4689V54.4369H62.1812V47.6982Z" fill="#BFBFBF"/>
<path d="M59.2505 47.7041H58.0533V45.8467H56.3279V47.7041H55.1307V49.405H56.3279V54.4385H58.0533V49.405H59.2505V47.7041Z" fill="#BFBFBF"/>
<path d="M77.9992 50.759C77.9801 49.0657 76.6022 47.6992 74.9047 47.6992C74.4125 47.6992 73.9479 47.8148 73.5348 48.0192V47.7161H71.8094V54.4332H73.5348V50.7975C73.5348 50.7975 73.5348 50.7954 73.5348 50.7945C73.5348 50.0378 74.148 49.4246 74.9047 49.4246C75.6614 49.4246 76.2746 50.0378 76.2746 50.7945C76.2746 50.7954 76.2746 50.7966 76.2746 50.7975V54.4332H78V50.759H77.9992Z" fill="#BFBFBF"/>
<path d="M46.1224 50.6337C46.1199 49.0124 44.805 47.6992 43.1833 47.6992C42.3724 47.6992 41.6386 48.0276 41.1066 48.5583C40.5747 48.0276 39.8408 47.6992 39.03 47.6992C38.5971 47.6992 38.1861 47.7936 37.8158 47.9616V47.6992H36.0904V50.6383V54.4378H37.8158V50.6383C37.8158 49.968 38.3592 49.4242 39.03 49.4242C39.7008 49.4242 40.2442 49.9676 40.2442 50.6383V54.4378H41.9695V50.6383C41.9695 49.968 42.5129 49.4242 43.1837 49.4242C43.8545 49.4242 44.3979 49.9676 44.3979 50.6383V54.4378H46.1233V50.6337H46.1224Z" fill="#BFBFBF"/>
</svg>
